<svg version="1.1"
	 id="boomerang" xmlns:dc="http://purl.org/dc/elements/1.1/" xmlns:cc="http://creativecommons.org/ns#" xmlns:svg="http://www.w3.org/2000/svg" xmlns:sodipodi="http://sodipodi.sourceforge.net/DTD/sodipodi-0.dtd" xmlns:inkscape="http://www.inkscape.org/namespaces/inkscape"
	 xmlns="http://www.w3.org/2000/svg" xmlns:xlink="http://www.w3.org/1999/xlink" x="0px" y="0px" width="494.882px"
	 height="278.508px" viewBox="0 0 494.882 278.508" enable-background="new 0 0 494.882 278.508" xml:space="preserve">
<g>
	<path fill="#00A0BF" d="M35.907,209.713c-2.791,3.891-5.495,7.725-8.114,11.5H70v8.5v2v31.979c2.887-1.397,5.719-2.883,8.5-4.443
		v-49.533L35.907,209.713L35.907,209.713z"/>
	<path fill="#00A0BF" d="M20.632,231.713c-2.378,3.552-4.675,7.041-6.857,10.438v0.479c-18.365,33.341-18.368,34.78,0,34.765
		c16.855-0.373,31.929-3.727,45.725-9.107v-36.573L20.632,231.713L20.632,231.713z"/>
	<path fill="#00A0BF" d="M430.576,265.301c15.977,9.932,33.633,15.783,54.383,12.095c12.721-2.502,13.732-9.143-0.002-31.685
		c-4.576-7.363,0-0.032,0-0.032c-2.932-4.763-6.072-9.683-9.379-14.716h-45.002V265.301z"/>
	<path fill="#00A0BF" d="M401.076,206.963v-8.5h51.957C387.453,108.289,285.582,0,248.838,0
		C211.641,0,109.202,110.096,43.544,199.213H89v8.5v2v43.148c57.51-37.66,94.552-105.078,163.508-102.334
		c41.146,1.639,84.079,39.285,116.226,63.433c10.752,8.077,21.321,18.301,32.342,28.217v-33.215V206.963L401.076,206.963z"/>
	<path fill="#00A0BF" d="M420.076,228.963v-8.5h48.469c-2.58-3.783-5.24-7.617-7.982-11.5h-48.986v42.357
		c2.791,2.328,5.621,4.592,8.5,6.754v-27.111V228.963z"/>
</g>
</svg>
